<mxfile host="app.diagrams.net" modified="2020-12-16T10:49:15.230Z" agent="5.0 (Windows NT 10.0; Win64; x64) AppleWebKit/537.36 (KHTML, like Gecko) Chrome/87.0.4280.88 Safari/537.36" etag="6brxbEPqXx3FO6CSDss9" version="14.0.3" type="github">
  <diagram id="58QlD1cRD_wT0HPzZIQu" name="Page-1">
    <mxGraphModel dx="1278" dy="556" grid="1" gridSize="10" guides="1" tooltips="1" connect="1" arrows="1" fold="1" page="1" pageScale="1" pageWidth="827" pageHeight="1169" math="0" shadow="0">
      <root>
        <mxCell id="0" />
        <mxCell id="1" parent="0" />
        <mxCell id="WPDl2WdgpWrbtVpcsp_2-38" style="edgeStyle=orthogonalEdgeStyle;rounded=0;orthogonalLoop=1;jettySize=auto;html=1;entryX=1;entryY=0.5;entryDx=0;entryDy=0;noEdgeStyle=1;orthogonal=1;" parent="1" source="WPDl2WdgpWrbtVpcsp_2-2" target="WPDl2WdgpWrbtVpcsp_2-36" edge="1">
          <mxGeometry relative="1" as="geometry" />
        </mxCell>
        <mxCell id="WPDl2WdgpWrbtVpcsp_2-2" value="Begrænset adgang&amp;nbsp;&lt;br&gt;til basale behov" style="rounded=0;whiteSpace=wrap;html=1;" parent="1" vertex="1">
          <mxGeometry x="480" y="290" width="120" height="60" as="geometry" />
        </mxCell>
        <mxCell id="WPDl2WdgpWrbtVpcsp_2-37" style="edgeStyle=orthogonalEdgeStyle;rounded=0;orthogonalLoop=1;jettySize=auto;html=1;noEdgeStyle=1;orthogonal=1;" parent="1" source="WPDl2WdgpWrbtVpcsp_2-5" target="WPDl2WdgpWrbtVpcsp_2-36" edge="1">
          <mxGeometry relative="1" as="geometry">
            <Array as="points">
              <mxPoint x="390" y="240" mark="1" />
              <mxPoint x="390" y="260" mark="1" />
            </Array>
          </mxGeometry>
        </mxCell>
        <mxCell id="WPDl2WdgpWrbtVpcsp_2-5" value="Sult" style="rounded=0;whiteSpace=wrap;html=1;" parent="1" vertex="1">
          <mxGeometry x="330" y="210" width="120" height="60" as="geometry" />
        </mxCell>
        <mxCell id="WPDl2WdgpWrbtVpcsp_2-30" style="edgeStyle=orthogonalEdgeStyle;rounded=0;orthogonalLoop=1;jettySize=auto;html=1;entryDx=0;entryDy=0;noEdgeStyle=1;orthogonal=1;" parent="1" source="WPDl2WdgpWrbtVpcsp_2-13" target="WPDl2WdgpWrbtVpcsp_2-5" edge="1">
          <mxGeometry relative="1" as="geometry">
            <Array as="points">
              <mxPoint x="320" y="160" />
              <mxPoint x="320" y="175" />
              <mxPoint x="390" y="175" mark="24" />
              <mxPoint x="390" y="180" mark="8" />
            </Array>
          </mxGeometry>
        </mxCell>
        <mxCell id="WPDl2WdgpWrbtVpcsp_2-32" style="edgeStyle=orthogonalEdgeStyle;rounded=0;orthogonalLoop=1;jettySize=auto;html=1;entryDx=0;entryDy=0;noEdgeStyle=1;orthogonal=1;exitDx=0;exitDy=0;" parent="1" source="WPDl2WdgpWrbtVpcsp_2-13" target="WPDl2WdgpWrbtVpcsp_2-23" edge="1">
          <mxGeometry relative="1" as="geometry">
            <Array as="points">
              <mxPoint x="320" y="160" />
              <mxPoint x="320" y="175" />
              <mxPoint x="220" y="175" mark="20" />
              <mxPoint x="220" y="180" mark="4" />
            </Array>
          </mxGeometry>
        </mxCell>
        <mxCell id="ON9V5ifgB8OQ4-Cwj8S6-3" style="edgeStyle=orthogonalEdgeStyle;rounded=0;orthogonalLoop=1;jettySize=auto;html=1;" edge="1" parent="1" source="WPDl2WdgpWrbtVpcsp_2-13" target="WPDl2WdgpWrbtVpcsp_2-2">
          <mxGeometry relative="1" as="geometry" />
        </mxCell>
        <mxCell id="WPDl2WdgpWrbtVpcsp_2-13" value="Mangel på jobs og&amp;nbsp;&lt;br&gt;ressourcer" style="rounded=0;whiteSpace=wrap;html=1;" parent="1" vertex="1">
          <mxGeometry x="250" y="100" width="120" height="60" as="geometry" />
        </mxCell>
        <mxCell id="WPDl2WdgpWrbtVpcsp_2-44" style="edgeStyle=orthogonalEdgeStyle;rounded=0;orthogonalLoop=1;jettySize=auto;html=1;noEdgeStyle=1;orthogonal=1;" parent="1" source="WPDl2WdgpWrbtVpcsp_2-21" target="WPDl2WdgpWrbtVpcsp_2-35" edge="1">
          <mxGeometry relative="1" as="geometry">
            <Array as="points">
              <mxPoint x="220" y="320" mark="1" />
              <mxPoint x="220" y="340" mark="1" />
            </Array>
          </mxGeometry>
        </mxCell>
        <mxCell id="WPDl2WdgpWrbtVpcsp_2-21" value="Forskelsbehandling" style="rounded=0;whiteSpace=wrap;html=1;" parent="1" vertex="1">
          <mxGeometry x="160" y="290" width="120" height="60" as="geometry" />
        </mxCell>
        <mxCell id="WPDl2WdgpWrbtVpcsp_2-33" style="edgeStyle=orthogonalEdgeStyle;rounded=0;orthogonalLoop=1;jettySize=auto;html=1;entryDx=0;entryDy=0;noEdgeStyle=1;orthogonal=1;" parent="1" source="WPDl2WdgpWrbtVpcsp_2-23" target="WPDl2WdgpWrbtVpcsp_2-21" edge="1">
          <mxGeometry relative="1" as="geometry">
            <Array as="points">
              <mxPoint x="220" y="240" mark="1" />
              <mxPoint x="220" y="260" mark="1" />
            </Array>
          </mxGeometry>
        </mxCell>
        <mxCell id="WPDl2WdgpWrbtVpcsp_2-43" style="edgeStyle=orthogonalEdgeStyle;rounded=0;orthogonalLoop=1;jettySize=auto;html=1;entryDx=0;entryDy=0;noEdgeStyle=1;orthogonal=1;entryPerimeter=0;" parent="1" source="WPDl2WdgpWrbtVpcsp_2-23" target="WPDl2WdgpWrbtVpcsp_2-36" edge="1">
          <mxGeometry relative="1" as="geometry">
            <Array as="points" />
          </mxGeometry>
        </mxCell>
        <mxCell id="WPDl2WdgpWrbtVpcsp_2-23" value="Begrænset adgang til&lt;br&gt;uddannelse" style="rounded=0;whiteSpace=wrap;html=1;" parent="1" vertex="1">
          <mxGeometry x="160" y="210" width="120" height="60" as="geometry" />
        </mxCell>
        <mxCell id="WPDl2WdgpWrbtVpcsp_2-26" style="edgeStyle=orthogonalEdgeStyle;rounded=0;orthogonalLoop=1;jettySize=auto;html=1;entryDx=0;entryDy=0;noEdgeStyle=1;orthogonal=1;entryX=0.5;entryY=0;exitX=0.5;exitY=1;exitDx=0;exitDy=0;" parent="1" source="WPDl2WdgpWrbtVpcsp_2-25" target="WPDl2WdgpWrbtVpcsp_2-13" edge="1">
          <mxGeometry relative="1" as="geometry">
            <Array as="points" />
          </mxGeometry>
        </mxCell>
        <mxCell id="WPDl2WdgpWrbtVpcsp_2-25" value="Økonomisk ulighed og fattigdom" style="rounded=0;whiteSpace=wrap;html=1;" parent="1" vertex="1">
          <mxGeometry x="250" y="20" width="120" height="60" as="geometry" />
        </mxCell>
        <mxCell id="WPDl2WdgpWrbtVpcsp_2-34" value="Dårlige levevilkår" style="rounded=0;whiteSpace=wrap;html=1;" parent="1" vertex="1">
          <mxGeometry x="330" y="380" width="120" height="60" as="geometry" />
        </mxCell>
        <mxCell id="WPDl2WdgpWrbtVpcsp_2-41" style="edgeStyle=orthogonalEdgeStyle;rounded=0;orthogonalLoop=1;jettySize=auto;html=1;entryX=0;entryY=0.5;entryDx=0;entryDy=0;noEdgeStyle=1;orthogonal=1;" parent="1" source="WPDl2WdgpWrbtVpcsp_2-35" target="WPDl2WdgpWrbtVpcsp_2-34" edge="1">
          <mxGeometry relative="1" as="geometry" />
        </mxCell>
        <mxCell id="WPDl2WdgpWrbtVpcsp_2-35" value="Ulighed" style="rounded=0;whiteSpace=wrap;html=1;" parent="1" vertex="1">
          <mxGeometry x="160" y="380" width="120" height="60" as="geometry" />
        </mxCell>
        <mxCell id="WPDl2WdgpWrbtVpcsp_2-42" style="edgeStyle=orthogonalEdgeStyle;rounded=0;orthogonalLoop=1;jettySize=auto;html=1;noEdgeStyle=1;orthogonal=1;" parent="1" source="WPDl2WdgpWrbtVpcsp_2-36" target="WPDl2WdgpWrbtVpcsp_2-34" edge="1">
          <mxGeometry relative="1" as="geometry">
            <Array as="points">
              <mxPoint x="390" y="320" mark="1" />
              <mxPoint x="390" y="340" mark="1" />
            </Array>
          </mxGeometry>
        </mxCell>
        <mxCell id="WPDl2WdgpWrbtVpcsp_2-36" value="Dårligt heldbred" style="rounded=0;whiteSpace=wrap;html=1;" parent="1" vertex="1">
          <mxGeometry x="330" y="290" width="120" height="60" as="geometry" />
        </mxCell>
      </root>
    </mxGraphModel>
  </diagram>
</mxfile>
